<svg preserveAspectRatio="none" width="100%" height="100%" overflow="visible" style="display: block;" viewBox="0 0 15 14" fill="none" xmlns="http://www.w3.org/2000/svg">
<path id="Vector" d="M10.1 13V2.33333C10.1 1.97971 9.96304 1.64057 9.71924 1.39052C9.47544 1.14048 9.14478 1 8.8 1H6.2C5.85522 1 5.52456 1.14048 5.28076 1.39052C5.03696 1.64057 4.9 1.97971 4.9 2.33333V13M2.3 3.66667H12.7C13.418 3.66667 14 4.26362 14 5V11.6667C14 12.403 13.418 13 12.7 13H2.3C1.58203 13 1 12.403 1 11.6667V5C1 4.26362 1.58203 3.66667 2.3 3.66667Z" stroke="var(--stroke-0, #1C58A0)" stroke-width="2" stroke-linecap="round" stroke-linejoin="round"/>
</svg>
