<svg preserveAspectRatio="none" width="100%" height="100%" overflow="visible" style="display: block;" viewBox="0 0 15 14.0001" fill="none" xmlns="http://www.w3.org/2000/svg">
<path id="Vector" d="M7.5 5.0454V7.69694M7.5 10.3485H7.50622M6.43616 1.63819L1.16674 11.0114C1.0581 11.2118 1.00061 11.4391 1 11.6706C0.999397 11.9021 1.05569 12.1297 1.16327 12.3308C1.27086 12.532 1.426 12.6995 1.61325 12.8169C1.8005 12.9343 2.01333 12.9975 2.23058 13H12.7694C12.9867 12.9975 13.1995 12.9343 13.3868 12.8169C13.574 12.6995 13.7291 12.532 13.8367 12.3308C13.9443 12.1297 14.0006 11.9021 14 11.6706C13.9994 11.4391 13.9419 11.2118 13.8333 11.0114L8.56384 1.63819C8.45293 1.44337 8.29677 1.2823 8.11043 1.17051C7.92409 1.05873 7.71385 1 7.5 1C7.28615 1 7.07592 1.05873 6.88957 1.17051C6.70323 1.2823 6.54707 1.44337 6.43616 1.63819Z" stroke="var(--stroke-0, #D31C21)" stroke-width="2" stroke-linecap="round" stroke-linejoin="round"/>
</svg>
